<?xml version="1.0" standalone="no"?>
<!DOCTYPE svg PUBLIC "-//W3C//DTD SVG 20010904//EN"
 "http://www.w3.org/TR/2001/REC-SVG-20010904/DTD/svg10.dtd">
<svg version="1.0" xmlns="http://www.w3.org/2000/svg"
 width="5000.000000pt" height="2000.000000pt" viewBox="0 0 5000.000000 2000.000000"
 preserveAspectRatio="xMidYMid meet">

<g transform="translate(0.000000,2000.000000) scale(0.100000,-0.100000)"
fill="#000000" stroke="none">
<path d="M31184 14526 l-34 -34 1 -563 c0 -310 4 -584 9 -609 19 -93 148 -538
166 -570 8 -14 25 -59 38 -100 63 -196 108 -306 132 -327 37 -33 88 -31 125 6
38 38 38 75 0 183 -16 46 -44 126 -61 178 -18 52 -43 120 -56 150 -13 30 -40
114 -60 185 -20 72 -49 171 -63 220 l-25 90 -6 580 c-3 319 -9 588 -14 598
-11 23 -58 47 -92 47 -16 0 -38 -12 -60 -34z"/>
<path d="M17643 13472 c-12 -2 -33 -15 -47 -29 l-26 -26 0 -1303 0 -1304 -301
0 -301 0 -34 -34 c-37 -37 -43 -70 -20 -115 25 -48 44 -51 361 -51 l295 0 0
-881 0 -881 29 -29 c39 -38 87 -39 130 -3 l31 26 0 884 0 884 580 0 580 0 32
29 c44 39 46 98 5 139 l-27 27 -585 3 -585 2 0 1304 c0 1227 -1 1305 -17 1325
-20 23 -66 39 -100 33z"/>
<path d="M11175 12726 c-122 -39 -205 -112 -295 -261 -51 -85 -60 -109 -108
-275 -73 -253 -100 -456 -108 -828 l-7 -293 -61 -44 c-102 -72 -344 -206 -476
-263 -168 -73 -271 -105 -449 -142 -290 -59 -304 -60 -1683 -60 -953 0 -1263
-3 -1283 -12 -29 -13 -55 -55 -55 -88 0 -34 27 -76 58 -89 21 -9 342 -11 1333
-8 1432 4 1368 1 1687 67 255 53 490 144 755 296 l162 92 7 -312 c3 -171 13
-374 22 -451 28 -264 35 -340 46 -515 6 -96 17 -206 25 -245 39 -182 54 -317
61 -545 3 -129 7 -255 9 -280 1 -25 3 -91 4 -146 1 -95 3 -103 27 -128 37 -37
101 -37 138 0 24 25 26 32 26 123 0 97 20 308 40 436 6 38 19 141 29 230 14
127 23 169 39 191 11 16 82 132 157 258 75 126 149 245 164 264 25 33 161 131
230 167 19 9 58 25 87 35 l53 19 29 -33 c76 -87 162 -267 237 -496 132 -402
155 -458 211 -510 90 -83 279 -150 426 -150 78 0 199 18 272 41 144 44 293
178 421 379 125 195 186 326 259 553 36 111 85 265 110 342 l45 140 1 -108 c0
-117 13 -257 36 -382 8 -44 21 -146 29 -227 14 -134 19 -157 59 -255 110 -269
127 -293 296 -402 234 -153 306 -174 665 -191 197 -10 215 -9 290 10 213 54
362 175 517 420 124 197 145 275 89 331 -58 58 -136 30 -166 -60 -25 -75 -158
-278 -233 -353 -71 -73 -143 -117 -237 -144 -51 -14 -83 -16 -215 -10 -273 12
-346 22 -428 61 -84 40 -248 144 -281 179 -25 27 -67 111 -116 236 -25 63 -36
107 -40 170 -4 47 -17 153 -30 235 -38 233 -45 353 -45 733 0 375 -4 407 -48
431 -27 15 -93 13 -113 -2 -24 -19 -36 -46 -48 -118 -6 -36 -38 -133 -70 -215
-32 -82 -89 -243 -126 -359 -37 -115 -94 -295 -128 -399 -65 -205 -120 -323
-232 -501 -81 -127 -196 -249 -269 -284 -96 -47 -261 -64 -378 -40 -57 12
-157 60 -182 88 -18 20 -51 111 -146 406 -112 343 -266 614 -377 660 -97 41
-241 -2 -435 -129 -149 -98 -174 -128 -368 -453 -73 -123 -136 -221 -140 -218
-13 8 -30 152 -40 345 -5 102 -16 235 -24 295 -27 196 -36 372 -36 706 l0 327
58 47 c287 236 450 449 577 757 72 174 92 273 102 519 l6 137 -31 66 c-46 97
-158 209 -231 230 -64 19 -101 19 -156 2z m147 -234 c25 -27 51 -59 58 -73 17
-30 15 -141 -6 -313 -13 -111 -22 -144 -60 -232 -24 -57 -44 -107 -44 -112 0
-16 -104 -188 -158 -261 -62 -85 -157 -187 -216 -234 l-39 -31 6 219 c9 287
35 466 104 700 39 131 57 172 113 255 42 62 71 90 115 113 52 28 78 22 127
-31z"/>
<path d="M19143 12472 c-12 -2 -33 -15 -47 -29 l-26 -26 0 -1809 c0 -1222 3
-1816 10 -1829 17 -30 68 -52 106 -45 60 12 70 37 77 193 11 250 60 528 117
674 12 30 43 92 69 139 26 47 65 123 87 170 42 88 150 239 249 347 63 70 85
80 212 89 102 8 115 1 176 -98 54 -86 100 -217 122 -345 21 -120 129 -449 193
-585 86 -184 153 -287 221 -343 86 -71 175 -123 256 -148 60 -18 93 -21 235
-21 200 1 267 16 434 101 125 64 215 145 302 268 l49 70 80 -11 c44 -7 154
-18 244 -25 297 -22 472 9 653 117 120 72 185 142 251 272 110 214 174 397
256 732 11 47 31 126 45 175 36 135 64 359 71 560 9 285 16 480 18 482 4 3
150 -17 154 -21 3 -2 20 -73 38 -158 18 -84 40 -180 49 -213 8 -33 31 -134 50
-225 55 -260 96 -420 126 -486 35 -78 162 -276 210 -330 21 -22 69 -88 108
-147 144 -214 264 -337 362 -372 68 -24 172 -19 265 13 149 50 225 102 385
262 163 161 208 224 310 426 38 75 72 139 74 141 3 3 56 -31 118 -76 195 -140
439 -247 666 -292 138 -27 567 -46 699 -31 110 13 256 49 383 94 440 157 618
212 965 298 235 57 263 62 455 75 282 20 377 30 578 59 140 21 426 45 539 46
30 0 80 44 86 77 8 43 -17 92 -55 107 -26 11 -67 12 -193 5 -199 -10 -233 -14
-477 -50 -108 -15 -276 -33 -372 -39 -299 -18 -361 -27 -616 -90 -333 -83
-651 -181 -940 -290 -176 -66 -293 -91 -450 -97 -175 -6 -466 10 -575 32 -201
41 -381 122 -580 259 -77 54 -143 101 -148 105 -4 4 2 34 13 67 26 73 93 315
113 409 49 221 81 645 58 757 -35 167 -192 261 -441 262 -95 0 -111 -2 -168
-28 -166 -76 -217 -240 -237 -761 -6 -149 -4 -167 19 -258 40 -157 146 -359
220 -419 12 -10 54 -37 93 -60 40 -24 73 -47 73 -53 0 -18 -125 -259 -172
-332 -87 -135 -277 -319 -388 -378 -121 -63 -210 -75 -268 -37 -37 24 -147
158 -225 272 -39 58 -90 128 -113 155 -57 68 -148 207 -184 280 -31 63 -68
201 -119 445 -16 80 -44 201 -60 270 -17 69 -41 177 -55 241 -29 138 -53 190
-104 224 -41 27 -151 55 -220 55 -47 0 -45 -3 -60 91 -5 36 -17 83 -27 103
-44 93 -180 178 -294 184 -61 3 -69 1 -103 -28 -69 -58 -96 -183 -61 -286 30
-88 157 -189 264 -211 l32 -6 -7 -291 c-4 -160 -11 -338 -17 -396 -11 -126
-44 -318 -64 -380 -8 -25 -37 -135 -65 -244 -65 -257 -94 -341 -174 -509 -79
-168 -107 -204 -199 -261 -129 -80 -231 -106 -415 -106 -92 0 -292 16 -359 28
l-41 7 64 160 c43 109 71 200 88 285 30 144 50 417 45 603 -4 108 -7 128 -31
177 -48 97 -140 162 -257 181 -160 25 -437 -87 -591 -241 -87 -86 -104 -117
-160 -295 -87 -275 -55 -457 123 -697 97 -132 213 -223 355 -282 l83 -34 -49
-59 c-63 -75 -109 -111 -197 -155 -133 -66 -163 -73 -340 -73 -152 0 -163 1
-215 26 -30 14 -83 47 -117 73 -52 39 -72 64 -117 144 -74 130 -136 274 -175
404 -18 59 -41 129 -51 155 -10 26 -21 71 -25 98 -11 78 -55 243 -86 318 -40
97 -130 231 -180 267 -74 53 -136 65 -267 51 -128 -13 -208 -39 -259 -84 -45
-39 -176 -195 -240 -284 -27 -37 -83 -135 -125 -217 l-77 -151 -1 1306 c0
1229 -1 1308 -17 1328 -20 23 -66 39 -100 33z m6558 -562 c25 -6 59 -22 75
-35 l29 -23 -1 -194 c-2 -224 -25 -403 -79 -615 -39 -152 -84 -303 -90 -303
-12 0 -122 76 -137 94 -33 39 -96 171 -122 254 -30 95 -33 190 -16 422 20 259
49 372 108 405 31 18 155 15 233 -5z m-2355 -22 c50 -35 75 -102 33 -91 -31 9
-89 68 -89 92 0 27 16 27 56 -1z m-1359 -1257 c71 -33 74 -45 74 -246 -2 -353
-28 -490 -148 -792 l-48 -121 -83 33 c-135 55 -226 134 -322 281 -59 90 -91
185 -91 269 -1 63 53 261 91 335 43 85 213 198 361 240 82 24 114 24 166 1z"/>
<path d="M13849 12111 c-39 -39 -40 -97 -4 -134 30 -29 58 -36 102 -25 42 11
63 42 63 94 0 85 -100 125 -161 65z"/>
<path d="M31715 11051 c-32 -13 -55 -46 -62 -84 -5 -32 -1 -41 30 -72 51 -51
122 -43 153 16 23 45 17 78 -20 115 -34 34 -61 41 -101 25z"/>
</g>
</svg>
